<?xml version="1.0" standalone="no"?>
<!DOCTYPE svg PUBLIC "-//W3C//DTD SVG 20010904//EN"
 "http://www.w3.org/TR/2001/REC-SVG-20010904/DTD/svg10.dtd">
<svg version="1.0" xmlns="http://www.w3.org/2000/svg"
 width="512.000000pt" height="512.000000pt" viewBox="0 0 512.000000 512.000000"
 preserveAspectRatio="xMidYMid meet">
<metadata>
Created by potrace 1.14, written by Peter Selinger 2001-2017
</metadata>
<g transform="translate(0.000000,512.000000) scale(0.100000,-0.100000)"
fill="#000000" stroke="none">
<path d="M2439 5116 c-2 -3 -29 -7 -59 -9 -30 -3 -77 -11 -105 -17 -27 -6 -57
-13 -65 -15 -32 -6 -106 -26 -120 -32 -8 -4 -17 -7 -20 -8 -19 -4 -91 -31
-120 -43 -19 -9 -38 -15 -42 -14 -5 1 -8 -2 -8 -6 0 -5 -6 -9 -12 -9 -18 0
-151 -65 -160 -78 -4 -5 -8 -7 -8 -3 0 4 -36 -15 -81 -42 -44 -28 -85 -50 -90
-50 -5 0 -9 -4 -9 -9 0 -5 -13 -14 -30 -21 -16 -7 -30 -16 -30 -21 0 -5 -7 -9
-15 -9 -9 0 -18 -7 -21 -15 -4 -8 -11 -15 -16 -15 -11 0 -86 -55 -103 -75 -5
-7 -15 -14 -22 -16 -39 -14 -333 -302 -428 -419 -33 -41 -64 -80 -70 -86 -5
-6 -17 -22 -25 -34 -8 -12 -25 -34 -38 -48 -12 -15 -25 -35 -28 -44 -3 -10
-10 -18 -15 -18 -5 0 -9 -5 -9 -10 0 -6 -18 -36 -39 -68 -22 -31 -37 -60 -35
-64 3 -5 1 -8 -3 -8 -5 0 -20 -21 -33 -47 -14 -27 -29 -51 -35 -55 -5 -4 -6
-8 -1 -8 5 0 3 -6 -3 -14 -18 -22 -71 -135 -71 -151 0 -8 -4 -15 -8 -15 -4 0
-13 -17 -19 -37 -7 -21 -28 -83 -47 -138 -41 -115 -39 -108 -37 -117 0 -4 -4
-19 -9 -34 -6 -15 -13 -43 -16 -63 -3 -20 -7 -43 -10 -51 -5 -14 -15 -76 -17
-107 0 -7 -5 -13 -10 -13 -5 0 -4 -6 2 -13 6 -8 8 -17 4 -20 -10 -10 -15 -90
-15 -237 0 -143 6 -218 26 -330 20 -116 20 -117 28 -140 3 -8 15 -46 27 -85
12 -38 26 -79 31 -90 51 -117 75 -165 82 -165 4 0 8 -7 8 -15 0 -16 39 -77 53
-83 4 -2 7 -10 7 -18 0 -8 5 -14 10 -14 6 0 10 -6 10 -13 0 -7 10 -23 22 -35
33 -30 48 -50 48 -62 0 -5 7 -10 15 -10 8 0 15 -3 15 -8 0 -8 77 -92 85 -92 3
0 21 -15 39 -32 18 -18 43 -40 56 -48 12 -8 28 -21 36 -28 7 -6 15 -12 18 -12
3 0 15 -8 26 -18 29 -25 80 -54 200 -113 58 -29 117 -58 132 -66 15 -8 29 -13
30 -13 2 1 17 -4 33 -11 17 -7 32 -13 35 -13 35 -9 100 -32 100 -36 0 -3 8 -6
18 -7 40 -3 62 -8 62 -13 0 -3 14 -7 32 -8 18 -2 35 -6 38 -10 3 -4 21 -9 40
-11 19 -2 39 -6 45 -9 8 -5 51 -13 83 -15 6 0 12 -3 12 -6 0 -3 10 -6 23 -7
12 0 47 -4 77 -9 30 -5 65 -9 77 -10 13 -1 26 -4 29 -8 3 -3 12 -3 20 0 21 8
44 -16 39 -41 -3 -11 -7 -46 -10 -76 -4 -30 -8 -71 -10 -90 -2 -19 -7 -60 -10
-90 -3 -30 -8 -68 -10 -85 -2 -16 -4 -51 -6 -78 -1 -26 -5 -47 -9 -47 -7 0 -4
-168 4 -200 4 -14 8 -29 10 -35 14 -61 100 -164 169 -204 38 -21 135 -55 192
-66 51 -11 292 -13 342 -3 26 5 55 10 63 12 52 10 134 44 181 75 59 40 125
120 135 163 3 16 10 28 16 28 6 0 8 3 5 7 -4 3 -2 12 4 20 9 9 8 13 0 13 -8 0
-9 6 -3 18 9 16 7 109 -3 202 -11 112 -15 148 -21 190 -23 185 -31 266 -25
275 6 10 23 13 89 17 17 1 32 5 32 8 0 3 17 6 38 8 52 4 71 7 170 28 15 3 36
7 47 9 11 2 20 4 20 5 0 2 33 10 60 15 11 2 21 4 23 5 1 2 7 4 12 5 6 1 11 3
13 4 1 2 13 4 27 7 23 4 41 9 95 30 11 4 25 8 30 10 169 44 474 214 614 341
19 18 39 33 44 33 4 0 5 5 2 10 -3 5 -3 10 2 10 11 0 61 48 100 96 74 91 83
102 83 113 0 6 4 11 8 11 21 0 172 313 169 350 0 3 5 15 11 26 6 12 14 34 16
50 3 16 10 44 15 62 5 18 10 33 9 35 0 4 15 102 19 122 2 11 5 38 6 60 1 22 5
45 8 50 7 13 3 298 -5 350 -6 37 -15 104 -20 150 -1 11 -5 29 -9 40 -3 11 -8
36 -11 55 -2 19 -9 48 -15 63 -6 15 -10 31 -9 35 1 4 -1 14 -5 22 -3 8 -22 63
-42 123 -19 59 -50 137 -67 175 -18 37 -33 73 -34 80 -1 8 -10 22 -20 33 -9
10 -14 19 -9 19 4 0 3 6 -3 13 -11 13 -46 75 -71 122 -8 17 -19 35 -23 40 -13
15 -78 116 -78 121 0 2 -6 12 -14 21 -8 10 -53 68 -100 128 -86 112 -298 334
-395 415 -30 25 -59 50 -65 55 -6 6 -40 32 -76 58 -36 27 -73 55 -83 63 -9 8
-21 14 -26 14 -4 0 -16 9 -26 20 -10 11 -24 20 -32 20 -7 0 -13 5 -13 10 0 6
-4 10 -9 10 -5 0 -47 23 -93 51 -45 28 -91 53 -101 55 -9 1 -24 10 -33 18 -8
9 -20 17 -25 17 -19 3 -25 5 -92 37 -38 18 -80 35 -95 38 -15 4 -31 10 -37 14
-5 5 -21 10 -35 12 -14 1 -27 6 -30 10 -3 4 -17 9 -30 11 -14 2 -32 7 -40 10
-14 5 -119 28 -195 42 -37 7 -320 16 -326 11z"/>
</g>
</svg>
